HIERARCHY
ROOT Hips
{
	OFFSET -3.958830 18.904000 13.208200
	CHANNELS 6 Xposition Yposition Zposition Zrotation Yrotation Xrotation 
	JOINT LHipJoint
	{
		OFFSET 0.000000 0.000000 0.000000
		CHANNELS 3 Zrotation Yrotation Xrotation
		JOINT LeftUpLeg
		{
			OFFSET 1.800000 -1.400000 0.085000
			CHANNELS 3 Zrotation Yrotation Xrotation
			JOINT LeftLeg
			{
				OFFSET 2.215000 -6.000000 0.000000
				CHANNELS 3 Zrotation Yrotation Xrotation
				JOINT LeftFoot
				{
					OFFSET 2.500000 -6.900000 0.000000
					CHANNELS 3 Zrotation Yrotation Xrotation
					JOINT LeftToeBase
					{
						OFFSET 0.200000 -0.500000 1.950000
						CHANNELS 3 Zrotation Yrotation Xrotation
						End Site
						{
							OFFSET 0.000000 0.000000 0.000000
						}
					}
				}
			}
		}
	}
	JOINT RHipJoint
	{
		OFFSET 0.000000 0.000000 0.000000
		CHANNELS 3 Zrotation Yrotation Xrotation
		JOINT RightUpLeg
		{
			OFFSET -1.800000 -1.400000 0.085000
			CHANNELS 3 Zrotation Yrotation Xrotation
			JOINT RightLeg
			{
				OFFSET -2.215000 -6.000000 0.000000
				CHANNELS 3 Zrotation Yrotation Xrotation
				JOINT RightFoot
				{
					OFFSET -2.500000 -6.900000 0.000000
					CHANNELS 3 Zrotation Yrotation Xrotation
					JOINT RightToeBase
					{
						OFFSET -0.200000 -0.500000 1.950000
						CHANNELS 3 Zrotation Yrotation Xrotation
						End Site
						{
							OFFSET 0.000000 0.000000 0.000000
						}
					}
				}
			}
		}
	}
	JOINT LowerBack
	{
		OFFSET 0.000000 0.000000 0.000000
		CHANNELS 3 Zrotation Yrotation Xrotation
		JOINT Spine
		{
			OFFSET -0.087000 1.940000 -0.288900
			CHANNELS 3 Zrotation Yrotation Xrotation
			JOINT Spine1
			{
				OFFSET 0.000000 1.950000 0.060000
				CHANNELS 3 Zrotation Yrotation Xrotation
				JOINT Neck
				{
					OFFSET 0.000000 0.000000 0.000000
					CHANNELS 3 Zrotation Yrotation Xrotation
					JOINT Neck1
					{
						OFFSET 0.000000 1.600000 0.340000
						CHANNELS 3 Zrotation Yrotation Xrotation
						JOINT Head
						{
							OFFSET 0.000000 1.667000 -0.240000
							CHANNELS 3 Zrotation Yrotation Xrotation
							End Site
							{
								OFFSET 0.000000 0.000000 0.000000
							}
						}
					}
				}
				JOINT LeftShoulder
				{
					OFFSET 0.000000 0.000000 0.000000
					CHANNELS 3 Zrotation Yrotation Xrotation
					JOINT LeftArm
					{
						OFFSET 2.700000 1.550000 -0.730000
						CHANNELS 3 Zrotation Yrotation Xrotation
						JOINT LeftForeArm
						{
							OFFSET 5.450000 0.000000 0.000000
							CHANNELS 3 Zrotation Yrotation Xrotation
							JOINT LeftHand
							{
								OFFSET 3.450000 0.000000 0.000000
								CHANNELS 3 Zrotation Yrotation Xrotation
								JOINT LeftHandIndex1
								{
									OFFSET 0.750000 0.000000 0.000000
									CHANNELS 3 Zrotation Yrotation Xrotation
									End Site
									{
										OFFSET 0.000000 0.000000 0.000000
									}
								}
							}
						}
					}
				}
				JOINT RightShoulder
				{
					OFFSET 0.000000 0.000000 0.000000
					CHANNELS 3 Zrotation Yrotation Xrotation
					JOINT RightArm
					{
						OFFSET -2.700000 1.550000 -0.730000
						CHANNELS 3 Zrotation Yrotation Xrotation
						JOINT RightForeArm
						{
							OFFSET -5.450000 0.000000 0.000000
							CHANNELS 3 Zrotation Yrotation Xrotation
							JOINT RightHand
							{
								OFFSET -3.450000 0.000000 0.000000
								CHANNELS 3 Zrotation Yrotation Xrotation
								JOINT RightHandIndex1
								{
									OFFSET -0.750000 0.000000 0.000000
									CHANNELS 3 Zrotation Yrotation Xrotation
									End Site
									{
										OFFSET 0.000000 0.000000 0.000000
									}
								}
							}
						}
					}
				}
			}
		}
	}
}
MOTION
Frames: 13
Frame Time: 0.016667
0.685300 15.936160 -1.855320 1.047331 -6.713830 6.411041 -14.952178 12.642011 2.879343 2.503218 -3.009876 -16.182828 -12.704023 8.312293 20.266709 -1.155776 5.897381 2.756418 0.748350 0.122090 0.586150 18.633291 -9.958168 3.541661 -1.075253 5.819964 -34.049792 7.967040 -3.413817 9.626443 0.079198 -2.016617 3.864965 0.510340 0.558300 0.258830 -4.414573 -1.496013 -7.260538 17.628203 -5.922720 10.528867 -9.807514 -3.276930 6.774930 1.839553 -5.715258 -6.647221 -9.370740 5.994795 18.386583 -7.264130 3.299680 -13.395080 -27.827768 -5.972871 1.311820 -21.961575 -1.050661 1.229039 -107.305967 -50.021553 55.781572 -4.164345 3.480369 0.712420 0.459590 -0.333870 0.357720 23.761325 6.771081 4.999365 22.128976 -9.698117 -8.140544 41.159803 56.888011 16.656344 1.210442 -1.964038 -0.618580 0.626900 0.078570 -0.566020 
0.738120 15.839910 -1.880910 1.612032 -6.498557 5.870696 -14.945306 12.654081 2.953224 1.852123 -3.240537 -16.147136 -12.947505 8.672602 21.783634 -1.092869 6.099797 2.673121 0.751580 0.119150 0.615090 18.627481 -9.963766 3.551256 -1.630372 5.656916 -34.630195 7.405748 -3.348212 9.658191 0.071358 -1.961866 3.860709 0.496120 0.523870 0.272380 -4.409348 -1.526197 -7.360878 17.650982 -6.310344 12.111788 -9.898630 -3.493603 5.802955 1.986344 -5.390251 -6.347365 -8.828564 5.843757 18.752079 -7.861330 3.568020 -13.784790 -29.703329 -6.568189 1.050307 -20.745207 -0.849722 0.453559 -99.579883 -49.098301 48.571046 -4.125170 3.477427 0.723890 0.442480 -0.306880 0.344000 25.283908 7.059518 4.922694 21.969647 -9.379463 -8.498485 40.509559 58.060798 16.721509 1.225908 -1.975915 -0.602660 0.600770 0.068620 -0.575220 
0.790310 15.746270 -1.903660 1.962289 -5.974109 5.053820 -14.930663 12.656981 3.043563 1.644724 -3.637812 -16.404933 -13.174896 9.252958 24.129021 -1.003101 6.424406 2.543764 0.734330 0.102670 0.626340 18.627483 -9.981592 3.570801 -2.698619 5.636654 -36.176501 6.975998 -3.794923 12.807724 0.055769 -2.088362 3.802742 0.471490 0.489950 0.260220 -4.420429 -1.522521 -7.463334 18.113435 -6.886849 13.915371 -10.285214 -3.754899 4.539944 2.236653 -5.057440 -6.045698 -8.285736 5.529838 19.378834 -8.520850 3.794800 -13.990940 -31.137642 -6.910014 0.655053 -20.005269 -0.872726 -0.362762 -90.050740 -47.251612 40.152394 -4.067832 3.442863 0.734070 0.423290 -0.290110 0.326780 26.126914 7.087131 4.804427 23.071350 -8.662770 -9.004712 39.710190 58.502952 16.444613 1.250780 -1.952711 -0.597860 0.584580 0.061720 -0.585120 
0.834490 15.664650 -1.924090 1.957347 -5.075340 3.582947 -14.912093 12.686741 3.116655 1.893511 -3.994326 -16.239179 -13.210778 9.938279 26.845106 -0.870816 6.834764 2.382966 0.706120 0.054080 0.647330 18.626934 -10.006392 3.629626 -3.823859 5.806179 -38.167852 6.140084 -4.683102 18.874520 -0.017590 -2.518216 3.626803 0.408400 0.433320 0.262420 -4.429363 -1.528648 -7.606143 18.963529 -7.626853 16.621750 -10.989452 -3.934697 2.766670 2.750138 -4.488678 -5.805610 -7.424271 4.992809 20.755340 -9.299180 4.132180 -14.459160 -32.783797 -7.346480 0.225047 -19.445181 -1.001519 -1.189183 -79.951974 -44.033944 31.450944 -3.973568 3.408082 0.769570 0.381440 -0.252410 0.301170 26.614945 7.059964 4.780916 25.242772 -8.048212 -9.918210 37.805458 58.686646 15.537915 1.293882 -1.903534 -0.580300 0.543170 0.054580 -0.600900 
0.857130 15.590190 -1.943740 2.137311 -4.305169 1.934993 -14.946973 12.696700 3.187517 2.036156 -4.467345 -16.392502 -13.061953 10.839117 30.402373 -0.700981 7.383219 2.173343 0.659890 -0.000950 0.644980 18.598997 -9.875399 3.779054 -5.423525 6.248219 -40.793822 5.308588 -5.965420 27.000516 -0.164067 -3.446524 3.285715 0.339080 0.382460 0.250840 -4.328517 -1.735285 -7.819960 18.631765 -7.949012 19.481030 -10.801964 -3.882678 1.054597 3.209573 -3.872949 -5.683275 -6.600336 4.294730 22.553397 -10.051850 4.314570 -14.935390 -33.827007 -7.475942 -0.083547 -20.427083 -0.898781 -2.116553 -69.352139 -40.333991 23.360939 -3.889155 3.332349 0.804780 0.337930 -0.217210 0.274030 26.690654 6.994195 4.683010 27.892319 -7.212760 -10.930277 35.862473 58.811342 14.615775 1.338559 -1.827190 -0.567880 0.516040 0.057600 -0.610470 
0.869310 15.532660 -1.966220 2.278485 -3.277861 -0.153035 -14.988135 12.699212 3.225105 2.129505 -4.973875 -16.481636 -12.346809 11.602349 34.262479 -0.518515 7.941333 1.954892 0.622520 -0.053250 0.635450 18.576079 -9.697458 3.943334 -7.620745 6.599095 -42.779472 4.869787 -7.628641 35.510488 -0.392471 -4.785773 2.808216 0.265240 0.319340 0.244490 -4.233996 -2.010204 -8.054539 18.447687 -8.522933 22.625482 -10.753062 -4.039115 -0.857870 3.520759 -3.798898 -5.644273 -6.846256 3.715243 24.973006 -10.360550 3.932650 -15.509000 -35.047010 -7.571979 -0.242512 -21.411400 -0.274737 -3.026218 -59.270525 -36.308086 16.572860 -3.781745 3.275126 0.844320 0.275170 -0.178190 0.245150 27.206817 7.282822 4.614686 30.341476 -6.154647 -11.776465 33.795178 57.650933 13.313602 1.392266 -1.741467 -0.538930 0.478200 0.066750 -0.613760 
0.873910 15.484270 -1.975770 2.506204 -2.354666 -2.174157 -15.034865 12.674867 3.242626 2.022503 -5.444886 -16.588335 -11.392306 12.279684 38.130463 -0.349394 8.508650 1.746483 0.596010 -0.096560 0.625280 18.560496 -9.488274 4.102772 -10.037869 6.913756 -44.166875 4.598755 -9.528007 43.880380 -0.684474 -6.313470 2.291852 0.207050 0.268970 0.227250 -4.148929 -2.299248 -8.287179 18.086588 -8.902285 25.085864 -10.586618 -4.223087 -2.396868 3.702439 -3.966777 -5.682159 -7.661046 3.466096 27.950984 -10.239520 3.338330 -16.010500 -35.905624 -7.528278 -0.280598 -23.096126 0.555898 -3.859627 -49.453152 -31.934188 10.867591 -3.678373 3.186361 0.896740 0.209340 -0.142700 0.229340 27.633969 7.629525 4.488622 32.819148 -4.860305 -12.358343 31.661150 55.165918 11.684193 1.442957 -1.636688 -0.527210 0.465150 0.072710 -0.615970 
0.870900 15.451880 -1.974630 2.503825 -1.262964 -4.114409 -15.064671 12.626108 3.259370 2.353633 -5.873183 -16.943016 -10.531106 13.011808 41.858255 -0.169953 9.098909 1.541914 0.582660 -0.123450 0.642250 18.555391 -9.326343 4.212614 -12.491835 7.150450 -44.478689 5.035872 -11.753360 51.124561 -1.001689 -7.784983 1.820758 0.163070 0.220180 0.205400 -4.106520 -2.475471 -8.497972 18.054183 -9.153870 26.852852 -10.731189 -4.378980 -3.687198 3.982753 -3.664654 -5.616853 -7.695210 3.206602 31.413236 -10.228900 2.978700 -16.016450 -37.408872 -7.591909 -0.241948 -24.297414 1.463693 -4.375401 -39.757014 -27.140226 6.321145 -3.580249 3.088058 0.931020 0.154070 -0.108280 0.216030 28.490250 7.672396 4.281763 35.168788 -3.850449 -12.858536 30.558321 53.775139 10.791379 1.497618 -1.561911 -0.515380 0.458170 0.060320 -0.619780 
0.859340 15.423930 -1.958020 2.802814 -0.576104 -5.490879 -15.090558 12.555375 3.236894 2.316885 -5.928402 -17.200363 -9.718326 13.612358 44.626861 -0.053205 9.550671 1.379186 0.579610 -0.138810 0.655280 18.557936 -9.171856 4.352216 -14.897320 7.597948 -44.727610 5.537513 -13.917951 57.445925 -1.313077 -9.118443 1.415249 0.138830 0.188450 0.203940 -4.078632 -2.546574 -8.678224 17.537198 -8.685353 27.377649 -10.756452 -4.243586 -4.335995 4.271035 -2.974780 -5.381166 -6.805910 2.997367 34.390067 -10.218330 2.839170 -15.968920 -38.528821 -7.165736 -0.309014 -25.635523 2.170525 -4.457475 -30.851689 -22.104772 2.981499 -3.550262 2.975404 0.960480 0.126740 -0.085820 0.202410 29.007189 6.981075 3.816314 37.615271 -2.774467 -12.994663 31.620048 53.178771 11.022009 1.530932 -1.516301 -0.506550 0.447780 0.061310 -0.630000 
0.837920 15.403670 -1.920330 2.407496 -0.009031 -6.332424 -15.076606 12.519582 3.136812 3.127968 -5.426216 -17.228144 -9.114536 14.201286 46.222306 0.072805 9.811674 1.275436 0.566100 -0.138140 0.625890 18.585667 -9.079415 4.490688 -16.427824 8.448461 -44.421268 6.483066 -16.051001 62.384643 -1.589446 -10.219722 1.108881 0.107740 0.157610 0.199990 -4.142719 -2.504513 -8.783009 18.115624 -8.291703 26.451713 -10.964076 -4.052714 -4.324469 4.580582 -2.604022 -5.522463 -6.386165 3.179954 37.411798 -9.870530 2.837470 -14.692990 -38.762065 -6.652704 -0.104217 -27.539794 3.264679 -4.353346 -22.995496 -17.246328 0.765151 -3.555175 2.885619 0.940360 0.105780 -0.075790 0.197150 28.547406 6.469390 3.621447 40.525984 -1.928417 -13.098250 33.682145 53.426966 11.842811 1.584504 -1.512248 -0.464150 0.406300 0.057710 -0.611400 
0.815690 15.397710 -1.869110 2.187126 0.534268 -7.116278 -15.040772 12.528725 2.967455 3.521066 -4.563681 -16.351573 -8.358385 14.313853 46.457987 0.136521 9.799234 1.280415 0.568680 -0.123220 0.594430 18.620508 -9.094070 4.586662 -18.430187 8.956017 -43.301081 8.389536 -18.559501 65.669694 -1.839611 -11.161382 0.856642 0.090970 0.152570 0.212100 -4.249218 -2.362368 -8.798939 18.631780 -7.737803 24.858653 -11.085676 -3.920871 -3.722641 4.675136 -2.362698 -5.579575 -6.034632 3.256635 39.661311 -9.079870 2.381580 -13.397700 -38.201290 -5.703024 0.006001 -29.310340 4.282847 -3.975172 -17.126835 -13.130045 -0.442056 -3.597243 2.805962 0.917420 0.097290 -0.066870 0.213960 27.766239 5.507069 3.373642 43.199615 -1.166542 -12.841076 38.262846 54.973054 14.209173 1.637183 -1.545873 -0.422510 0.376220 0.046580 -0.579590 
0.793230 15.410690 -1.815760 2.043057 1.129192 -8.106769 -15.003387 12.631147 2.791950 3.821158 -3.541475 -14.810800 -7.491491 14.192896 46.128306 0.154516 9.679517 1.316973 0.573890 -0.119540 0.597040 18.633459 -9.212097 4.577262 -20.065123 9.303111 -40.983788 10.068158 -20.608844 67.682363 -2.027305 -11.813760 0.675339 0.077120 0.128510 0.217170 -4.330013 -2.249812 -8.746111 18.886917 -7.117307 23.365316 -10.981439 -3.839700 -2.902700 4.716652 -2.323769 -5.615603 -6.049112 3.478568 41.871184 -9.028900 2.122160 -12.527830 -37.431941 -4.554590 -0.007802 -30.869806 4.974604 -3.455233 -12.155393 -9.406374 -1.119775 -3.650540 2.721998 0.910360 0.077780 -0.053590 0.211840 26.936587 4.445848 3.157965 45.336089 -0.231358 -12.012957 45.353209 57.414425 18.414799 1.709510 -1.580233 -0.395040 0.351200 0.038550 -0.569870 
0.765360 15.437770 -1.766240 1.992644 1.682317 -8.914827 -14.964729 12.771553 2.652425 3.882192 -2.633554 -13.275589 -6.397234 13.726782 45.448122 0.120410 9.492511 1.398299 0.537180 -0.164440 0.559620 18.629371 -9.445090 4.458210 -20.963069 9.428458 -37.875741 11.057530 -21.640200 68.240905 -2.087267 -12.109840 0.614456 0.057120 0.168290 0.218460 -4.391383 -2.077278 -8.638413 18.703772 -6.333798 21.915700 -10.616707 -3.664835 -2.079387 4.597372 -1.932550 -5.526815 -5.216423 3.341760 43.031447 -9.005290 1.924510 -10.754480 -37.154945 -3.681507 0.172360 -31.233607 6.467021 -3.382779 -8.724184 -8.596522 -1.263694 -3.716738 2.681566 0.889130 0.110140 -0.086100 0.214290 26.969944 3.455152 2.900063 46.161184 0.464089 -10.769460 53.326337 59.842168 23.594472 1.761580 -1.594582 -0.407040 0.355250 0.060830 -0.561760 
